<?xml version="1.0" standalone="no"?>
<!DOCTYPE svg PUBLIC "-//W3C//DTD SVG 20010904//EN"
 "http://www.w3.org/TR/2001/REC-SVG-20010904/DTD/svg10.dtd">
<svg version="1.0" xmlns="http://www.w3.org/2000/svg"
 width="1024.000000pt" height="1024.000000pt" viewBox="0 0 1024.000000 1024.000000"
 preserveAspectRatio="xMidYMid meet">

<g transform="translate(0.000000,1024.000000) scale(0.100000,-0.100000)"
fill="#000000" stroke="none">
<path d="M4905 7764 c-16 -2 -84 -11 -150 -20 -151 -20 -401 -82 -539 -134
-121 -45 -326 -143 -404 -193 l-53 -34 73 -55 74 -55 154 76 c85 42 196 91
247 108 l92 32 181 -134 c100 -73 233 -169 296 -212 l115 -78 -98 -12 c-308
-38 -596 -139 -849 -296 -137 -85 -201 -136 -325 -260 -275 -276 -454 -581
-548 -937 -49 -188 -64 -325 -58 -550 6 -240 21 -332 93 -564 14 -45 21 -83
16 -88 -5 -5 -29 25 -55 71 -55 94 -147 196 -223 247 -64 41 -211 116 -266
133 -34 11 -38 16 -45 59 -14 90 -8 440 11 557 30 194 17 172 132 219 230 94
351 182 409 297 39 76 39 133 1 166 -22 18 -35 23 -55 18 -31 -8 -71 -43 -71
-62 0 -7 -4 -13 -10 -13 -5 0 -10 6 -10 13 0 19 -40 54 -71 62 -20 5 -33 0
-55 -18 -39 -34 -38 -83 3 -165 l32 -63 -40 -25 c-71 -44 -189 -94 -189 -80 0
36 99 297 159 421 73 148 141 259 224 363 l50 63 -59 60 c-32 32 -62 59 -66
59 -14 0 -161 -205 -227 -316 -248 -417 -387 -998 -352 -1476 49 -692 351
-1320 856 -1782 348 -318 740 -536 1154 -642 253 -65 362 -78 671 -78 254 0
286 2 425 26 445 79 805 235 1155 499 395 298 703 689 885 1123 182 435 249
999 170 1445 -41 235 -125 498 -229 716 -259 543 -686 969 -1241 1240 -250
122 -459 189 -751 241 -126 22 -184 27 -379 29 -126 2 -243 1 -260 -1z m223
-190 c49 -29 67 -63 67 -130 0 -51 -4 -66 -28 -97 -32 -42 -87 -74 -144 -82
-36 -6 -49 1 -235 124 -109 72 -198 135 -198 140 0 5 12 12 28 15 219 45 462
59 510 30z m401 -15 c57 -10 106 -20 108 -23 18 -17 -151 -192 -260 -269 -95
-68 -247 -135 -247 -109 0 5 12 14 26 21 49 22 121 92 150 144 24 44 28 64 29
127 0 56 -5 83 -17 103 -10 14 -18 29 -18 32 0 8 103 -4 229 -26z m534 -153
c311 -129 604 -325 852 -571 119 -118 186 -200 295 -364 179 -267 330 -652
373 -953 7 -48 -4 -49 -26 -2 -41 86 -153 171 -248 189 -35 6 -36 9 -47 67 -6
33 -20 79 -32 102 -31 65 -96 87 -125 42 -14 -22 -15 -30 -1 -83 8 -32 20
-110 26 -173 15 -167 20 -197 46 -281 42 -133 144 -259 211 -259 41 0 99 37
157 101 31 34 56 66 56 71 0 5 4 7 8 4 11 -6 16 -269 7 -341 l-7 -55 -62 -32
c-81 -43 -235 -197 -310 -310 -31 -48 -90 -151 -129 -230 -72 -141 -73 -142
-116 -155 -24 -7 -50 -18 -57 -24 -28 -23 -22 -2 26 99 95 199 147 405 172
678 21 237 -16 528 -97 771 -140 419 -449 817 -813 1046 -239 150 -491 247
-757 289 -71 11 -141 22 -154 25 -20 3 -10 13 64 59 127 79 185 128 319 262
l119 120 81 -28 c44 -15 121 -44 169 -64z m-596 -545 c492 -92 945 -405 1230
-851 103 -160 200 -413 238 -616 23 -120 31 -407 15 -531 -30 -245 -85 -427
-196 -643 -238 -462 -663 -799 -1174 -930 -208 -54 -491 -71 -690 -41 -352 51
-660 188 -950 422 -336 272 -552 656 -636 1129 -24 130 -24 419 -1 554 61 353
211 664 451 930 270 301 663 519 1046 580 146 24 152 24 360 21 144 -2 224 -9
307 -24z m1861 -1300 c72 -37 132 -122 132 -187 0 -41 -32 -103 -57 -111 -18
-6 -63 61 -90 133 -23 66 -42 184 -29 184 4 0 23 -9 44 -19z m237 -959 c-15
-76 -30 -144 -34 -150 -7 -12 -294 -172 -299 -167 -11 10 119 224 185 305 46
56 163 163 170 156 3 -2 -8 -67 -22 -144z m-4817 21 c36 -38 108 -112 160
-165 l96 -98 -43 0 c-33 0 -221 52 -239 66 -6 4 -62 227 -62 247 0 31 22 18
88 -50z m132 -379 c85 -18 249 -18 328 1 35 8 67 13 72 10 4 -2 13 -19 20 -37
8 -18 33 -68 57 -110 l44 -77 -26 -55 c-29 -61 -173 -206 -205 -206 -11 0 -60
17 -111 37 l-91 38 -68 135 c-67 136 -120 258 -120 280 0 8 7 9 18 5 9 -4 46
-13 82 -21z m4577 -31 c-31 -83 -143 -304 -207 -406 -63 -100 -53 -98 -180
-52 -107 37 -213 50 -307 36 -42 -6 -78 -10 -80 -7 -2 2 11 23 29 47 19 24 53
72 77 106 35 51 49 62 79 68 100 19 445 170 557 244 49 32 55 26 32 -36z
m-3934 -361 c19 -27 55 -72 81 -101 26 -29 45 -55 42 -58 -13 -14 -316 2 -316
16 0 4 23 31 51 61 29 30 63 72 77 93 13 20 26 37 27 37 2 0 19 -22 38 -48z
m3476 -213 c111 -29 109 -27 56 -95 -70 -91 -269 -288 -378 -376 -139 -111
-314 -224 -460 -298 l-125 -63 -111 68 c-121 72 -329 175 -398 195 -24 7 -43
16 -43 20 0 3 33 14 73 25 285 73 598 235 832 430 44 37 87 70 95 75 15 7 161
37 215 44 55 6 169 -5 244 -25z m-3758 -51 c79 -18 129 -22 321 -23 l227 -3
48 -39 c284 -237 717 -420 1058 -449 100 -8 101 -9 69 -46 -95 -114 -82 -266
31 -366 l48 -42 -34 0 c-127 0 -539 69 -539 90 0 8 152 80 169 80 24 0 81 35
87 53 10 33 -4 64 -36 77 -26 11 -41 10 -93 -4 -74 -21 -210 -83 -273 -125
-25 -17 -48 -31 -51 -31 -17 0 -362 177 -438 225 -209 132 -434 320 -587 491
-95 105 -117 134 -105 134 2 0 46 -10 98 -22z m2100 -572 c186 -61 573 -256
551 -278 -12 -12 -213 -64 -322 -83 -47 -8 -126 -18 -175 -21 -89 -7 -92 -6
-170 30 -219 101 -250 271 -65 355 59 27 92 26 181 -3z"/>
<path d="M5896 7231 c-33 -37 10 -94 53 -71 43 22 28 90 -19 90 -9 0 -25 -9
-34 -19z"/>
<path d="M6183 7078 c-38 -49 -19 -79 85 -132 103 -54 208 -122 271 -178 54
-47 83 -56 117 -34 35 23 40 42 21 81 -25 52 -225 194 -355 252 -57 25 -124
30 -139 11z"/>
<path d="M6845 6498 c-54 -29 -60 -87 -16 -163 37 -65 105 -135 131 -135 31 0
101 71 133 133 45 90 34 152 -30 171 -28 9 -82 -18 -92 -47 -8 -21 -8 -21 -15
-1 -6 21 -55 54 -78 54 -7 0 -22 -6 -33 -12z"/>
<path d="M7224 6112 c-29 -20 -19 -68 16 -72 29 -4 39 0 45 20 13 40 -28 75
-61 52z"/>
<path d="M7322 5038 c-19 -19 -14 -45 10 -62 19 -13 25 -14 43 -2 26 18 30 40
10 60 -19 19 -46 21 -63 4z"/>
<path d="M5106 6549 c-47 -37 -23 -123 45 -160 41 -22 119 50 119 109 0 42
-40 72 -95 72 -28 0 -51 -7 -69 -21z"/>
<path d="M4495 6476 c-39 -17 -52 -33 -60 -76 -11 -63 62 -140 119 -126 68 17
111 97 83 153 -15 29 -70 63 -99 63 -7 -1 -27 -7 -43 -14z m65 -91 c0 -18 -5
-25 -19 -25 -24 0 -33 13 -25 34 10 27 44 20 44 -9z"/>
<path d="M6065 6262 c-3 -3 -5 -23 -5 -44 0 -38 0 -38 -40 -38 l-40 0 0 -40
c0 -39 1 -40 35 -40 21 0 35 -5 36 -12 1 -7 2 -17 4 -23 1 -5 3 -18 3 -27 2
-13 11 -18 31 -18 31 0 41 14 41 61 0 27 3 29 35 29 33 0 35 2 35 35 0 34 -1
35 -40 35 -40 0 -40 0 -40 39 0 33 -3 39 -25 43 -13 3 -27 3 -30 0z"/>
<path d="M4150 6118 c-34 -18 -70 -75 -70 -110 0 -41 27 -94 58 -114 38 -25
113 -24 149 2 46 33 64 80 52 135 -14 64 -45 91 -111 96 -32 2 -63 -1 -78 -9z"/>
<path d="M4930 6111 c-52 -9 -105 -22 -117 -29 -46 -26 -37 -106 14 -118 13
-4 54 0 91 7 98 20 340 17 422 -5 155 -41 252 -90 386 -192 59 -45 92 -64 113
-64 34 0 61 30 61 67 0 32 -56 91 -143 151 -250 173 -534 236 -827 183z"/>
<path d="M6297 5808 c-29 -10 -43 -43 -34 -81 3 -12 21 -60 40 -107 76 -182
114 -416 101 -626 -6 -105 -5 -113 15 -133 27 -27 72 -27 96 -1 38 42 43 332
9 513 -20 104 -47 192 -95 309 -51 121 -75 145 -132 126z"/>
<path d="M3808 5693 c-30 -35 -51 -88 -87 -225 -37 -137 -24 -198 42 -198 38
0 53 21 72 102 10 40 33 118 52 172 18 55 33 107 33 116 0 44 -82 67 -112 33z"/>
<path d="M4552 5561 c-111 -38 -202 -123 -255 -238 -19 -41 -22 -65 -21 -163
0 -98 4 -125 25 -182 65 -168 236 -419 416 -608 97 -103 348 -322 390 -342 20
-10 34 -2 120 68 125 102 313 283 401 387 133 157 273 382 316 511 103 303
-89 586 -398 586 -135 0 -235 -40 -355 -141 l-67 -56 -70 58 c-70 60 -157 108
-229 128 -64 17 -212 13 -273 -8z m288 -185 c75 -38 128 -83 201 -171 35 -43
69 -75 80 -75 10 0 51 39 95 91 80 95 166 160 233 179 49 14 138 12 182 -4
100 -35 169 -135 169 -243 0 -196 -257 -561 -613 -870 -68 -59 -46 -66 -186
58 -224 198 -405 418 -504 614 -98 193 -66 353 86 430 46 23 61 26 127 23 56
-3 89 -11 130 -32z"/>
<path d="M3823 4869 c-100 -29 -98 -173 3 -215 39 -17 75 -6 116 33 86 82 -2
217 -119 182z"/>
<path d="M6173 4445 c-44 -19 -78 -88 -69 -138 4 -20 19 -49 35 -66 81 -87
232 -15 218 105 -5 51 -27 81 -74 100 -40 17 -69 17 -110 -1z"/>
<path d="M3994 4295 c-6 -43 -8 -45 -40 -45 -32 0 -34 -2 -34 -35 0 -33 2 -35
35 -35 33 0 35 -2 35 -35 0 -24 6 -37 21 -45 33 -18 49 -5 49 40 0 39 1 40 34
40 28 0 35 4 40 25 9 36 1 45 -40 45 -34 0 -34 0 -34 45 0 43 -1 45 -29 45
-28 0 -30 -3 -37 -45z"/>
<path d="M5829 3964 c-144 -95 -279 -154 -442 -194 -150 -37 -158 -40 -169
-64 -7 -18 -7 -31 3 -52 17 -36 54 -41 154 -24 159 28 340 102 498 202 82 53
117 89 117 120 0 22 -43 68 -63 68 -8 0 -52 -25 -98 -56z"/>
<path d="M4247 3972 c-29 -32 -21 -76 18 -111 116 -102 414 -242 480 -225 45
11 61 76 27 107 -10 9 -47 27 -82 41 -113 43 -161 67 -274 137 -115 72 -142
81 -169 51z"/>
<path d="M7126 3984 c-43 -42 10 -109 54 -69 26 24 25 50 -2 69 -28 20 -33 20
-52 0z"/>
<path d="M6533 3440 c-17 -10 -37 -28 -42 -39 -28 -52 3 -142 57 -162 39 -15
91 -4 123 27 38 36 46 82 24 128 -30 64 -101 84 -162 46z m85 -89 c4 -23 -11
-41 -35 -41 -18 0 -26 39 -12 56 17 21 43 13 47 -15z"/>
<path d="M6192 3118 c-28 -28 -1 -78 43 -78 22 0 45 25 45 49 0 33 -63 54 -88
29z"/>
<path d="M3812 3268 c-31 -31 -8 -58 49 -58 24 0 29 4 29 23 0 29 -18 47 -45
47 -12 0 -26 -5 -33 -12z"/>
<path d="M4126 3119 c-71 -55 18 -155 92 -103 47 32 16 124 -42 124 -13 0 -35
-9 -50 -21z"/>
<path d="M3290 7261 c-156 -48 -237 -230 -165 -370 35 -70 118 -156 236 -245
111 -83 138 -95 175 -75 87 46 253 219 296 309 48 97 33 215 -36 298 -67 78
-189 113 -279 78 -40 -15 -47 -15 -80 -1 -38 16 -105 18 -147 6z m108 -151
c53 -23 86 -22 154 4 56 22 86 16 129 -22 39 -35 49 -98 25 -155 -17 -38 -126
-156 -182 -194 l-30 -22 -104 87 c-57 48 -112 99 -123 113 -45 62 -26 162 36
193 41 20 39 20 95 -4z"/>
<path d="M4205 7246 c-49 -21 -70 -52 -70 -103 0 -39 5 -49 37 -79 61 -55 138
-41 173 33 16 33 16 41 4 77 -23 64 -87 96 -144 72z m65 -102 c0 -30 -26 -42
-46 -22 -17 17 -9 45 14 51 25 5 32 -1 32 -29z"/>
<path d="M3262 6474 c-44 -31 -15 -114 41 -114 55 1 86 71 48 109 -25 25 -58
27 -89 5z"/>
<path d="M2867 5523 c-11 -11 -8 -58 5 -71 19 -19 45 -14 62 10 20 28 20 33 0
52 -16 16 -55 22 -67 9z"/>
<path d="M2789 5222 c-24 -21 -32 -38 -36 -75 -5 -44 -3 -49 35 -87 29 -30 48
-40 71 -40 70 0 121 53 121 126 0 28 -8 44 -34 70 -29 29 -41 34 -80 34 -36 0
-52 -6 -77 -28z m105 -67 c13 -36 -23 -65 -49 -39 -11 12 -12 20 -5 35 13 23
45 25 54 4z"/>
</g>
</svg>
